<?xml version="1.0" encoding="UTF-8" standalone="no"?>
<svg
   xmlns:dc="http://purl.org/dc/elements/1.1/"
   xmlns:cc="http://creativecommons.org/ns#"
   xmlns:rdf="http://www.w3.org/1999/02/22-rdf-syntax-ns#"
   xmlns:svg="http://www.w3.org/2000/svg"
   xmlns="http://www.w3.org/2000/svg"
   xmlns:sodipodi="http://sodipodi.sourceforge.net/DTD/sodipodi-0.dtd"
   xmlns:inkscape="http://www.inkscape.org/namespaces/inkscape"
   height="300px"
   width="300px"
   fill="#000000"
   version="1.1"
   x="0px"
   y="0px"
   viewBox="0 0 100 100"
   enable-background="new 0 0 100 100"
   xml:space="preserve"
   id="svg4566"
   sodipodi:docname="pobrane.svg"
   inkscape:version="0.92.4 (5da689c313, 2019-01-14)"><metadata
     id="metadata4572"><rdf:RDF><cc:Work
         rdf:about=""><dc:format>image/svg+xml</dc:format><dc:type
           rdf:resource="http://purl.org/dc/dcmitype/StillImage" /></cc:Work></rdf:RDF></metadata><defs
     id="defs4570" /><sodipodi:namedview
     pagecolor="#ffffff"
     bordercolor="#666666"
     borderopacity="1"
     objecttolerance="10"
     gridtolerance="10"
     guidetolerance="10"
     inkscape:pageopacity="0"
     inkscape:pageshadow="2"
     inkscape:window-width="1920"
     inkscape:window-height="1017"
     id="namedview4568"
     showgrid="false"
     inkscape:zoom="1.4133333"
     inkscape:cx="219.0292"
     inkscape:cy="118.81827"
     inkscape:window-x="1912"
     inkscape:window-y="-8"
     inkscape:window-maximized="1"
     inkscape:current-layer="g4564" /><g
     id="g4564"><path
       fill="none"
       stroke="#000000"
       stroke-width="2"
       stroke-miterlimit="10"
       d="M79.991,86.334"
       id="path4546" /><g
       id="g4550"
       transform="translate(-11.084906,-5.8962264)"><path
         d="m 72.974,77.425 c -4.541,0 -8.867,-1.646 -12.282,-4.696 -3.679,-3.287 -5.858,-7.811 -6.136,-12.736 -0.464,-8.246 5.866,-15.332 14.111,-15.796 3.245,-0.179 6.373,0.91 8.801,3.078 2.427,2.168 3.863,5.15 4.046,8.399 0.15,2.651 -0.742,5.203 -2.512,7.185 -1.771,1.981 -4.205,3.154 -6.857,3.304 -4.505,0.246 -8.35,-3.195 -8.603,-7.684 -0.209,-3.703 2.634,-6.885 6.336,-7.093 1.49,-0.099 2.610448,0.202262 3.722448,1.195262 L 72.692655,54.38502 C 71.979655,53.74802 70.94,53.329 69.992,53.382 c -1.261,0.071 -2.418,0.629 -3.259,1.57 -0.841,0.94 -1.265,2.153 -1.194,3.413 0.191,3.39 3.123,5.971 6.494,5.801 2.118,-0.12 4.064,-1.058 5.478,-2.64 1.414,-1.583 2.127,-3.622 2.008,-5.74 -0.153,-2.716 -1.354,-5.208 -3.382,-7.021 -2.027,-1.812 -4.639,-2.723 -7.355,-2.572 -7.145,0.402 -12.63,6.542 -12.229,13.686 0.512,9.068 8.291,16.037 17.372,15.52 C 85.398,74.753 94.205,64.893 93.56,53.42 93.164,46.406 90.062,39.966 84.824,35.287 79.585,30.607 73.00377,29.99309 65.99077,30.39309 c -18.238,1.027 -29.653057,15.11368 -28.625057,33.34868 l -2.080386,0.02961 C 34.196327,44.435385 46.373,29.65186 65.709,28.56286 c 7.538,-0.43 14.809,0.19614 20.445,5.23214 5.636,5.036 8.976,11.965 9.4,19.512 0.708,12.575 -8.945,23.381 -21.518,24.088 -0.354,0.02 -0.709,0.03 -1.062,0.03 z"
         id="path4548"
         inkscape:connector-curvature="0"
         sodipodi:nodetypes="scccccccccccccccccccccccccccsccs" /></g><g
       id="g4554"
       transform="translate(-11.084906,-5.8962264)"><path
         d="m 20.63236,66.98014 -1.378261,-0.790832 c 0.313,-0.358 4.695614,-6.137538 18.111614,-2.447538 C 52.539713,69.30277 54.167,63.54 55.332,63.115 l -0.019,-0.051 c 0.298,-0.105 0.993,-0.351 1.446,0.267 l -0.008,1.198 c -0.051,0.067 -0.264,0.192 -0.629,0.346 l 0.005,0.026 c -0.032,0.009 -0.081,0.024 -0.146,0.048 l -0.005,-0.014 c -2.829,1.127 -4.654091,5.643631 -19.218091,0.299631 -12.14,-3.333 -16.056549,1.666509 -16.125549,1.745509 z"
         id="path4552"
         inkscape:connector-curvature="0"
         sodipodi:nodetypes="ccccccccccccc" /></g><path
       style="fill-opacity:1;stroke:none;stroke-width:0.16038467;stroke-miterlimit:4;stroke-dasharray:none;stroke-opacity:1"
       d="m 51.495971,50.754852 9.141978,0.0014 -0.547257,1.113857 h -9.193895 z"
       id="rect4585"
       inkscape:connector-curvature="0"
       sodipodi:nodetypes="ccccc" /><path
       style="fill-opacity:1;stroke:none;stroke-width:0.1529305;stroke-miterlimit:4;stroke-dasharray:none;stroke-opacity:1"
       d="m 51.506403,53.209597 8.311945,0.0014 -0.49757,1.113857 H 50.96163 Z"
       id="rect4585-0"
       inkscape:connector-curvature="0"
       sodipodi:nodetypes="ccccc" /><path
       style="fill-opacity:1;stroke:none;stroke-width:0.1529305;stroke-miterlimit:4;stroke-dasharray:none;stroke-opacity:1"
       d="m 7.6555623,50.426454 3.1972477,8.244549 -1.0502967,0.371783 -3.139267,-8.25402 z"
       id="rect4585-0-7"
       inkscape:connector-curvature="0"
       sodipodi:nodetypes="ccccc" /><path
       style="fill-opacity:1;stroke:none;stroke-width:0.1529305;stroke-miterlimit:4;stroke-dasharray:none;stroke-opacity:1"
       d="m 14.51459,50.581383 -2.607394,8.449644 -1.054386,-0.360024 2.658744,-8.4211 z"
       id="rect4585-0-7-6"
       inkscape:connector-curvature="0"
       sodipodi:nodetypes="ccccc" /></g></svg>